<svg xmlns="http://www.w3.org/2000/svg" viewBox="0 0 24 24" fill="#8b5cf6" width="48" height="48">
  <path d="M12 2c1.1 0 2 .9 2 2v2c0 1.1-.9 2-2 2s-2-.9-2-2V4c0-1.1.9-2 2-2zm9 16c0 1.1-.9 2-2 2H5c-1.1 0-2-.9-2-2v-2c0-2.2 3.6-4 8-4 .7 0 1.3.1 1.9.2-.5.7-.9 1.5-.9 2.4V18c0 .2.1.4.2.6-.6-.2-1.3-.3-2.2-.3-3.1 0-5.8 1.1-6 2.3h14v-2c0-.5.1-.9.3-1.4.7.7 1.7 1.2 2.7 1.2zm-2-6c-1.66 0-3 1.34-3 3v1h-1c-.55 0-1 .45-1 1v4c0 .55.45 1 1 1h6c.55 0 1-.45 1-1v-4c0-.55-.45-1-1-1h-1v-1c0-1.66-1.34-3-3-3zm1 4h-2v-1c0-.55.45-1 1-1s1 .45 1 1v1z"/>
</svg>
